<svg xmlns="http://www.w3.org/2000/svg" viewBox="0 0 32 32">
    <path opacity=".1" d="M18.4 32h2.3l-5.4-2.6-5 2.6h2.1l2.9-1.5zM26.8 32h2.3l-13.8-6.6L2.7 32h2.1l10.5-5.5zM15.3 21.4L0 29.4v1.1l15.3-8 16.7 8v-1.1zM15.3 17.4L0 25.4v1.1l15.3-8 16.7 8v-1.1zM15.3 13.4L0 21.4v1.1l15.3-8 16.7 8v-1.1zM15.3 9.4L0 17.4v1.1l15.3-8 16.7 8v-1.1zM15.3 5.4L0 13.4v1.1l15.3-8 16.7 8v-1.1zM15.3 1.4L0 9.4v1.1l15.3-8 16.7 8V9.4zM20.7 0h-2.3L32 6.5V5.4zM10.3 0L0 5.4v1.1L12.4 0zM2.7 0L0 1.4v1.1L4.8 0zM29.1 0h-2.3L32 2.5V1.4z"/>
    <path opacity=".1" fill="#ffffff" d="M16.8.5l1-.5h-2.1zM16.8 3.4L9.6 0H7.3l9.5 4.5L25.4 0h-2.1zM30.9 0L16.8 7.4 1.3 0H0v.5l16.8 8L32 .5V0zM16.8 11.4L0 3.4v1.1l16.8 8 15.2-8V3.4zM16.8 15.4L0 7.4v1.1l16.8 8 15.2-8V7.4zM16.8 19.4L0 11.4v1.1l16.8 8 15.2-8v-1.1zM16.8 23.4L0 15.4v1.1l16.8 8 15.2-8v-1.1zM16.8 27.4L0 19.4v1.1l16.8 8 15.2-8v-1.1zM16.8 31.4L0 23.4v1.1L15.7 32h2.1L32 24.5v-1.1zM23.3 32h2.1l6.6-3.5v-1.1zM0 27.4v1.1L7.3 32h2.3zM32 32v-.6l-1.1.6zM0 31.4v.6h1.3z"/>
</svg>